# xmcd CD database file
#
# Track frame offsets:
#	150
#	14667
#	53633
#	74631
#	89366
#	109125
#	122777
#	135486
#	147074
#	161254
#	174535
#	189489
#	202877
#	219290
#	228326
#	239898
#	252506
#	261980
#	274255
#
# Disc length: 3868 seconds
#
# Revision: 1
# Processed by: cddbd v1.5.2PL0 Copyright (c) Steve Scherf et al.
# Submitted via: CDex 1.70beta2
#
DISCID=1d0f1a13
DTITLE=Various Artist - Jazz! 100 CD1 (Swing and Big Band)
DYEAR=1900
DGENRE=Jazz
TTITLE0=In The Mood
TTITLE1=Sing, Sing, Sing
TTITLE2=Take The "A" Train
TTITLE3=Moonlight Serenade
TTITLE4=All Of Me
TTITLE5=It Don't Mean A Thing (If It Ain't Got That Swing)
TTITLE6=Stompin' At The Savoy
TTITLE7=Satin Doll
TTITLE8=Little Brown Jug
TTITLE9=Like Someone In Love
TTITLE10=Don't Be That Way
TTITLE11=My Favorite Things
TTITLE12=Sentimental Journey
TTITLE13=Mack The Knife
TTITLE14=Moliedo Cafe
TTITLE15=Mambo No. 5
TTITLE16=Peter Gunn
TTITLE17=Moon River
TTITLE18=Stardust
EXTD=
EXTT0=
EXTT1=
EXTT2=
EXTT3=
EXTT4=
EXTT5=
EXTT6=
EXTT7=
EXTT8=
EXTT9=
EXTT10=
EXTT11=
EXTT12=
EXTT13=
EXTT14=
EXTT15=
EXTT16=
EXTT17=
EXTT18=
PLAYORDER=
